<svg width="153" height="176" viewBox="0 0 153 176" fill="none" xmlns="http://www.w3.org/2000/svg">
<path fill-rule="evenodd" clip-rule="evenodd" d="M77 0C51.3333 5.5 0 26 0 64C0 111.5 10.5 165 56.5 165C93.3 165 101.5 150 101 142.5C103.833 152.167 111.736 175.5 123 175.5C139.5 175.5 160 156.5 149 156.5C132.737 156.5 111 138.5 123 126.5C135 114.5 149 94 149 74.5C149 55 154 0 77 0ZM30 83.5C28.5 60 46 22 77 20.5C123 18.2742 122 55 123 74.5C124 94 93.5 142.5 64 142.5C43.5 142.5 31.5 107 30 83.5Z" fill="url(#paint0_linear_2614_24)"/>
<defs>
<linearGradient id="paint0_linear_2614_24" x1="19.5" y1="13" x2="152" y2="176" gradientUnits="userSpaceOnUse">
<stop stop-color="#0033E8"/>
<stop offset="0.465" stop-color="#F20C5D"/>
<stop offset="1" stop-color="#F2F20C"/>
</linearGradient>
</defs>
</svg>
